<svg xmlns="http://www.w3.org/2000/svg" version="1.1" xmlns:xlink="http://www.w3.org/1999/xlink" xmlns:svgjs="http://svgjs.dev/svgjs" width="100%" height="100%" viewBox="0 0 1000 600"><rect width="1000" height="600" x="0" y="0" fill="black"/><g><rect width="333.3333333333333" height="333.3333333333333" y="509.6852491699531" fill="yellow" transform="matrix(0.25642971209003484,0,0,0.25642971209003484,0,126.5632716462031)" x="487.46301269531244"/><path d="M530.8337808948222 613.1878727710607L530.2185465289899 604.7503728967893L587.1716706803223 604.7503728967893Q618.1677639684445 604.7503728967893 631.1169825254862 608.8519353356712L631.1169825254862 608.8519353356712Q648.5779197652979 614.4183415027253 659.2126852318275 628.6273256659949L659.2126852318275 628.6273256659949Q672.1619037888692 645.9417785329895 672.1619037888692 669.7308406785048L672.1619037888692 669.7308406785048Q672.1619037888692 701.7523245763475 650.8923728558099 723.4027148787316L650.8923728558099 723.4027148787316Q629.1540919297355 745.4339645504404 588.4021394119868 745.4339645504404L588.4021394119868 745.4339645504404L533.9685464731106 745.4339645504404L533.7634683511665 737.201542798113L539.5056557656012 737.201542798113Q547.2107337757866 737.201542798113 548.3826087583243 736.2347459375194Q549.5251868662986 735.2972459514892 549.9353431101867 734.0667772198246L549.9353431101867 734.0667772198246Q550.4626868523287 732.5140428679622 550.4626868523287 727.9144335615017L550.4626868523287 727.9144335615017L550.4626868523287 620.7464664084289Q550.4626868523287 615.2386539905017 549.4665931171717 614.5648258755425Q548.4412025074512 613.9202946351468 547.0642494029694 613.5980290149489L547.0642494029694 613.5980290149489Q545.4236244274166 613.1878727710607 539.7107338875453 613.1878727710607L539.7107338875453 613.1878727710607L530.8337808948222 613.1878727710607ZM567.5720615973792 624.5550601016764L567.5720615973792 727.5042773176135Q567.5720615973792 732.9827928609773 568.2458897123383 734.0081834706978Q568.949014701861 735.0335740804182 569.945108437018 735.678105320814Q570.9704990467385 736.3226365612097 572.0837802801493 736.4984178085904Q573.2263583881236 736.674199055971 575.2771396075645 736.8792771779151L575.2771396075645 736.8792771779151Q577.8552645691475 737.201542798113 587.3474519277029 737.201542798113Q596.8103424116948 737.201542798113 606.2732328956868 735.2972459514892Q615.7654202542423 733.3929491048655 622.6501857766513 730.0824022791965Q629.5056544244968 726.8011523280909 634.8669824696068 722.1136523979401Q640.2283105147168 717.4261524677893 643.6267479640761 712.1527150463696Q647.0251854134355 706.8499807503865 649.2224510056936 700.6683402175001L649.2224510056936 700.6683402175001Q653.2068259463218 689.6234185070823 653.2068259463218 679.6917780300753Q653.2068259463218 669.7894344276317 651.9763572146572 663.4613095219281Q650.7165916084292 657.162481490788 648.0505760231559 651.0394347070285Q645.3845604378827 644.916387923269 641.4587792463814 639.4964661290321Q637.5329980548801 634.1058412093587 631.8494043895722 629.5062319028982Q626.1658107242644 624.9359194710012 619.2224514527285 621.6253726453322L619.2224514527285 621.6253726453322Q604.42752979819 614.6234196246694 583.978311352907 614.6234196246694L583.978311352907 614.6234196246694L576.2146395935947 614.6234196246694Q572.5525302731644 614.6234196246694 570.8533115484847 615.2386539905017L570.8533115484847 615.2386539905017Q567.5720615973792 616.5277164712932 567.5720615973792 624.5550601016764L567.5720615973792 624.5550601016764ZM702.074012718144 750.6781050972966L694.925575324664 751.3519332122557Q693.2263565999843 741.8890427282638 686.6638566977732 709.6038869593501L686.6638566977732 709.6038869593501L694.0759659623242 708.7249807224468L696.8298721712878 721.7913867777422Q698.2654190248965 728.7054491747147 699.1150283872363 729.7015429098717Q699.9646377495761 730.6976366450288 701.1658096066773 731.5179491328051Q702.3669814637784 732.3089647460181 703.4216689480623 732.6605272407794Q704.4470595577828 733.0120897355407 709.1931532370605 734.7113084602204L709.1931532370605 734.7113084602204Q719.886512452717 738.4906052789045 730.1697154244854 738.4906052789045Q740.4529183962537 738.4906052789045 746.7810433019573 735.5023240734333Q753.1091682076609 732.5140428679622 757.0349493991622 726.5960742061468Q760.9314337161001 720.648808669768 760.9314337161001 714.8773243807698Q760.9314337161001 709.0765432172082 759.3786993642376 705.4730276459047Q757.8552618869386 701.8695120746013 755.5115119218632 699.0277152419474Q753.1677619567878 696.2152152838569 749.3884651381037 693.2269340783857L749.3884651381037 693.2269340783857Q743.6169808491055 688.6859185210521 733.9490122431695 683.4417779741959L733.9490122431695 683.4417779741959L725.3064342469539 678.5784967966645Q712.4158094390392 671.3714656540576 708.7244032440454 667.826543831881Q705.0037001744882 664.2816220097045 702.6599502094128 661.3812314279237Q700.3162002443374 658.5101377207063 698.9392471398556 655.4632627661083L698.9392471398556 655.4632627661083Q695.7751846870038 648.6077941182627 695.7751846870038 640.6097473624429Q695.7751846870038 632.6117006066231 699.4079971328707 625.4925600877066Q703.0115127041742 618.37341956879 708.8708876168627 613.539435265822L708.8708876168627 613.539435265822Q721.5857311773967 603.0511541721096 737.757605936417 603.0511541721096L737.757605936417 603.0511541721096Q745.7849495668003 603.0511541721096 752.1423713470673 605.1605291406775Q758.4704962527709 607.2699041092453 759.3494024896742 607.2699041092453Q760.2283087265774 607.2699041092453 761.0193243397904 605.8929510047635Q761.8103399530033 604.5452947748452 762.0154180749474 601.7913885658816L762.0154180749474 601.7913885658816L769.1638554684274 601.3519354474299L772.3279179212792 639.9652161220472L764.7400274093476 640.1702942439913L762.8357305627238 621.4202945233881Q756.1560431622589 616.2347477256587 743.7927620964862 613.9202946351468L743.7927620964862 613.9202946351468Q738.9880746680816 612.9827946491166 733.3044810027737 612.9827946491166Q727.6208873374659 612.9827946491166 722.0544811704118 615.8245914817705Q716.4880750033577 618.637091439861 713.0896375539984 623.8519351121538Q709.691200104639 629.0374819098831 709.691200104639 633.930059961978Q709.691200104639 638.8226380140729 710.6287000906692 641.8402160941075Q711.5369032021359 644.8577941741421 713.4412000487597 647.4945128848519Q715.31620002082 650.1019347209983 717.5134656130782 652.3870909369468Q719.7400280798998 654.6429502783319 722.991981156442 656.9574033688439L722.991981156442 656.9574033688439Q727.9724498322272 660.5023251910204 736.0583872117372 665.043340748354L736.0583872117372 665.043340748354L747.6599495388606 671.3714656540576Q760.0525274791968 678.28552805103 764.3591680400228 682.1820123679679Q768.6658086008489 686.1077935594692 771.0095585659243 688.8616997684328Q773.3533085309997 691.6156059773964 774.8474491337353 694.4574028100503L774.8474491337353 694.4574028100503Q778.0408084611505 700.6683402175001 778.0408084611505 707.348027617965Q778.0408084611505 714.02771501843 776.0486209908364 719.7699024328647Q774.0564335205223 725.5120898472994 770.0134648307672 730.5218553976481Q765.9704961410122 735.5316209479968 760.3161993502678 739.252324017554L760.3161993502678 739.252324017554Q748.1579964064391 747.3382613970641 730.140418549922 747.3382613970641L730.140418549922 747.3382613970641Q719.9451062018439 747.3382613970641 713.5583875470135 745.4339645504404Q707.171668892183 743.5296677038166 705.6775282894474 743.5296677038166L705.6775282894474 743.5296677038166Q701.8689345961999 743.5296677038166 701.8689345961999 747.9534957628964L701.8689345961999 747.9534957628964L702.074012718144 750.6781050972966Z " fill="red" transform="matrix(0.25642971209003484,0,0,0.25642971209003484,0,126.5632716462031)"/><path d="M904.7038681887527 622.405525695141L904.1296793508099 614.5309359176395L957.283160348945 614.5309359176395Q986.2113408510164 614.5309359176395 998.2966487734319 618.3588615039249L998.2966487734319 618.3588615039249Q1014.5926748407613 623.5539033710266 1024.5179390394874 636.8149312949441L1024.5179390394874 636.8149312949441Q1036.6032469619026 652.9742457341919 1036.6032469619026 675.1762141346475L1036.6032469619026 675.1762141346475Q1036.6032469619026 705.0613760332903 1016.7527185644511 725.2673546637542L1016.7527185644511 725.2673546637542Q996.4647129571382 745.8287835272304 958.4315380248305 745.8287835272304L958.4315380248305 745.8287835272304L907.6294970296995 745.8287835272304L907.4381007503852 738.1455900290431L912.7971965711848 738.1455900290431Q919.9882282082782 738.1455900290431 921.0819212329312 737.2432932837045Q922.1482719319678 736.368338863982 922.5310644905963 735.2199611880964L922.5310644905963 735.2199611880964Q923.0232263516901 733.7708179304312 923.0232263516901 729.4780728086682L923.0232263516901 729.4780728086682L923.0232263516901 629.4598457041527Q923.0232263516901 624.3194884882837 922.0935872807352 623.6906149991082Q921.1366058841637 623.0890838355491 919.8515165801965 622.7883182537695L919.8515165801965 622.7883182537695Q918.3203463456824 622.405525695141 912.988592850499 622.405525695141L912.988592850499 622.405525695141L904.7038681887527 622.405525695141ZM938.9911445116237 633.014348034275L938.9911445116237 729.0952802500397Q938.9911445116237 734.2082951402923 939.6200180007992 735.1652765368638Q940.276233815591 736.1222579334351 941.205872886546 736.7237890969942Q942.1628542831174 737.3253202605534 943.2018626565377 737.4893742142514Q944.2682133555744 737.6534281679493 946.1821761487171 737.8448244472636L946.1821761487171 737.8448244472636Q948.5883008029538 738.1455900290431 957.4472143026429 738.1455900290431Q966.2787854767158 738.1455900290431 975.1103566507886 736.368338863982Q983.9692701504778 734.5910876989209 990.3947166703141 731.5014049042762Q996.7928208645341 728.4390644352478 1001.7964664523214 724.064292336636Q1006.800112040109 719.689520238024 1009.9718218116026 714.7679016270855Q1013.1435315830962 709.8189406905308 1015.1942060043206 704.0497099854863L1015.1942060043206 704.0497099854863Q1018.9127622881407 693.7416532281319 1018.9127622881407 684.4726048441979Q1018.9127622881407 675.2308987858802 1017.764384612255 669.324956452754Q1016.588664610753 663.4463564452443 1014.1005129796675 657.7318103914324Q1011.6123613485819 652.0172643376205 1007.9484897159945 646.9589340986005Q1004.284618083407 641.9279461851968 998.98020691384 637.6352010634338Q993.675795744273 633.3697982672871 987.195664573204 630.2801154726425L987.195664573204 630.2801154726425Q973.3877901369602 623.7452996503409 954.3028468567655 623.7452996503409L954.3028468567655 623.7452996503409L947.0571305684396 623.7452996503409Q943.6393398663989 623.7452996503409 942.0534849806521 624.3194884882837L942.0534849806521 624.3194884882837Q938.9911445116237 625.522550815402 938.9911445116237 633.014348034275L938.9911445116237 633.014348034275ZM1055.8795865214115 679.4416169307941L1055.8795865214115 679.4416169307941Q1055.8795865214115 670.1178838956274 1058.5591344318113 660.1926196969016Q1061.2386823422112 650.2673554981758 1065.9962469994516 642.7208736280702Q1070.753811656692 635.2017340835808 1077.233942827761 629.2411070992222Q1083.6867316732137 623.2804801148634 1091.3425828457848 619.5072391798105L1091.3425828457848 619.5072391798105Q1106.9550507727058 611.7693610303908 1124.153373585374 611.7693610303908L1124.153373585374 611.7693610303908Q1146.9021884981562 611.7693610303908 1164.975465730547 624.3194884882837L1164.975465730547 624.3194884882837Q1184.0877513363575 637.6352010634338 1189.7202704133206 662.1065824900444L1189.7202704133206 662.1065824900444Q1191.6889178576962 670.7194150591866 1191.6889178576962 679.1955360002472Q1191.6889178576962 687.6716569413079 1190.3218015768798 694.8626885784013Q1188.9546852960634 702.0537202154945 1186.0837411063494 708.8619592939594Q1183.2401392422516 715.6975406980406 1179.1114480741867 721.712852333632Q1174.9554145805055 727.7008216436071 1169.213526201077 732.7318095570108Q1163.471637821649 737.7627974704145 1156.5540294407188 741.3719844517694L1156.5540294407188 741.3719844517694Q1141.9532275616016 749.000493298724 1122.6222033508598 749.000493298724L1122.6222033508598 749.000493298724Q1095.662670293164 749.000493298724 1077.589393060773 733.087259790023L1077.589393060773 733.087259790023Q1055.8795865214115 714.0023165098285 1055.8795865214115 679.4416169307941ZM1079.6674098076141 645.236367584772Q1076.8784925947489 650.7595173592696 1075.2379530577696 658.4153685318405Q1073.5974135207898 666.0438773787951 1073.5974135207898 673.9184671562965Q1073.5974135207898 681.8203992594143 1074.718448871059 688.6012960122629Q1075.866826546945 695.4095350907277 1078.1909242243323 701.8623239361804Q1080.51502190172 708.3424551072493 1083.8234433012954 714.13902813791Q1087.1045223752544 719.935601168571 1091.6706907531807 724.747850477044Q1096.2368591311065 729.5874421111336 1101.6779819287553 733.087259790023L1101.6779819287553 733.087259790023Q1113.0523893851464 740.4970300320471 1127.8992721948107 740.4970300320471L1127.8992721948107 740.4970300320471Q1139.875210814761 740.4970300320471 1150.319979200197 734.427033745223L1150.319979200197 734.427033745223Q1160.6827206087837 728.4390644352478 1167.1355094542364 716.0803332566692L1167.1355094542364 716.0803332566692Q1173.8070369046195 703.3934941706946 1173.8070369046195 685.1835053102224L1173.8070369046195 685.1835053102224Q1173.8070369046195 655.763162947057 1156.8547950224984 636.9243005974093L1156.8547950224984 636.9243005974093Q1147.0935847774704 626.0147126764958 1133.2583680156104 621.8313368571982L1133.2583680156104 621.8313368571982Q1126.7235521933085 619.8626894128228 1121.3644563725093 619.8626894128228Q1116.0053605517096 619.8626894128228 1111.8219847324117 620.6282745300799Q1107.6386089131142 621.393859647337 1103.017755883955 623.2804801148634Q1098.3969028547963 625.1944429080062 1094.2135270354988 628.0107024464875Q1090.030151216201 630.826961984969 1086.2295679555318 635.2564187348136Q1082.456327020479 639.7132178102745 1079.6674098076141 645.236367584772ZM1207.848232296944 622.405525695141L1207.6568360176298 614.5309359176395L1238.116186754215 614.5309359176395L1318.8580742992217 718.67785419022L1318.8580742992217 629.4598457041527Q1318.8580742992217 624.8663350006102 1316.6433459242994 623.417191742945L1316.6433459242994 623.417191742945Q1315.0574910385526 622.405525695141 1308.0578556807736 622.405525695141L1308.0578556807736 622.405525695141L1301.1402472998434 622.405525695141L1301.5230398584722 614.5309359176395L1343.466167353914 614.5309359176395L1343.466167353914 622.405525695141L1338.9546836272202 622.405525695141Q1332.85734501478 622.405525695141 1331.0254091984862 623.5539033710266L1331.0254091984862 623.5539033710266Q1328.0997803575397 625.276469884855 1328.0997803575397 631.0457005898996L1328.0997803575397 631.0457005898996L1328.0997803575397 744.4343249207978Q1328.0997803575397 747.3052691105119 1327.8263571013763 748.2622505070832Q1327.552933845213 749.1918895780383 1326.3225291924787 749.1918895780383L1326.3225291924787 749.1918895780383L1323.588296630846 749.1918895780383Q1321.9477570938666 749.1918895780383 1321.5923068608545 748.7544123681771Q1321.2641989534582 748.3169351583159 1321.0454603485277 748.0981965533853Q1320.8267217435973 747.8521156228384 1320.2798752312706 747.059188179965Q1319.7330287189443 746.2662607370916 1319.2408668578505 745.6373872479161L1319.2408668578505 745.6373872479161L1233.4133067482076 635.3931303628952L1234.4249727960114 729.0952802500397Q1234.4249727960114 735.4933844442596 1236.913124427097 736.8878430506921L1236.913124427097 736.8878430506921Q1239.3192490813335 738.1455900290431 1248.971090023896 738.1455900290431L1248.971090023896 738.1455900290431L1252.3068537490876 738.1455900290431L1252.3068537490876 745.8287835272304L1210.965257417205 745.8287835272304L1210.965257417205 738.1455900290431L1216.871199750331 738.1455900290431Q1223.3786732470162 738.1455900290431 1224.280969992355 735.9308616541208L1224.280969992355 735.9308616541208Q1225.1559244120772 733.8255025816638 1225.1559244120772 729.4780728086682L1225.1559244120772 729.4780728086682L1225.1559244120772 624.7569656981449L1223.1599346420858 622.405525695141L1207.848232296944 622.405525695141ZM1355.8248985324926 652.2906875937838L1355.8248985324926 652.2906875937838Q1353.4734585294887 652.2906875937838 1353.4734585294887 649.7478513114656Q1353.4734585294887 647.2050150291474 1356.3717450448194 639.1390289723316Q1359.2973738857659 631.0457005898996 1360.3637245848026 627.1630903523815Q1361.4574176094557 623.2804801148634 1362.1683180754799 620.3548512739167Q1362.8792185415045 617.4565647585863 1363.7815152868434 614.3121973127089Q1364.6564697065655 611.1678298668315 1365.5861087775206 608.9804438175256Q1366.4884055228595 606.7930577682197 1367.6914678499775 605.0158066031585L1367.6914678499775 605.0158066031585Q1370.2069618066794 601.351934970571 1373.7614641368018 601.351934970571Q1377.3159664669238 601.351934970571 1378.765109724589 603.5666633454933Q1380.2415953078707 605.7813917204156 1380.2415953078707 608.2148587002686Q1380.2415953078707 610.6756680057377 1377.9995246073322 615.3785480117456Q1375.7847962324095 620.1087703433697 1371.4647087850303 627.3818289573121Q1367.1719636632674 634.6548875712544 1365.9415590105327 636.9789852486421Q1364.7111543577985 639.2757406004133 1363.5627766819125 641.5178113009518Q1362.414399006027 643.7325396758741 1361.730840865619 645.0996559566904Q1361.0746250508269 646.4394299118903 1360.3363822591864 647.8065461927066Q1359.6254817931617 649.1736624735228 1359.1606622576842 649.8845629395472Q1358.7231850478233 650.622805731188 1358.1763385354966 651.2516792203635L1358.1763385354966 651.2516792203635Q1357.2193571389253 652.2906875937838 1355.8248985324926 652.2906875937838ZM1397.9320799816328 614.5309359176395L1511.5394429174617 614.5309359176395L1509.1880029144577 646.0019527020291L1502.0789982542133 645.8105564227149Q1503.2820605813313 631.674574079075 1503.2820605813313 628.6669182612793Q1503.2820605813313 625.6592624434836 1501.2040438344907 624.428857790749Q1499.0986847620338 623.1711108123981 1493.2474270801404 623.1711108123981L1493.2474270801404 623.1711108123981Q1480.2051377611533 623.1711108123981 1473.096133100909 623.1711108123981Q1465.9871284406645 623.1711108123981 1464.7020391366973 623.417191742945Q1463.4442921583463 623.6632726734919 1462.8701033204038 623.7726419759572Q1462.2959144824608 623.8820112784225 1461.6670409932854 624.5655694188306Q1461.0381675041099 625.2491275592388 1460.874113550412 625.6592624434836Q1460.710059596714 626.0693973277286 1460.5186633173998 627.3818289573121Q1460.354609363702 628.6942605868957 1460.354609363702 629.6238996578508L1460.354609363702 629.6238996578508L1460.354609363702 729.0952802500397Q1460.354609363702 735.2199611880964 1462.323256808077 736.7511314226106L1462.323256808077 736.7511314226106Q1464.100507973138 738.1455900290431 1471.7563591457092 738.1455900290431L1471.7563591457092 738.1455900290431L1479.6309489232108 738.1455900290431L1479.822345202525 745.8287835272304L1427.871926531508 745.6373872479161L1427.871926531508 738.1455900290431Q1431.1803479310834 738.1455900290431 1433.4497609572381 738.1455900290431Q1435.7191739833934 738.1455900290431 1437.2503442179077 738.0362207265779Q1438.7815144524216 737.9541937497289 1439.4924149184462 737.87216677288Q1440.2306577100867 737.7901397960309 1441.1602967810418 737.544058865484Q1442.0899358519969 737.2706356093207 1442.445386085009 737.0245546787738Q1442.8281786436378 736.8058160738432 1443.2929981791153 736.2589695615167Q1443.7851600402091 735.7394653748065 1443.8945293426746 735.2199611880964Q1444.0312409707558 734.7277993270026 1444.1679525988375 733.8255025816638L1444.1679525988375 733.8255025816638Q1444.4140335293846 732.7044672313945 1444.4140335293846 729.8608653672967L1444.4140335293846 729.8608653672967L1444.4140335293846 634.2174103613933Q1444.4140335293846 626.6709284912877 1443.4570521328133 625.4131815129367Q1442.5274130618582 624.1280922089694 1441.3790353859727 623.7452996503409L1441.3790353859727 623.7452996503409Q1439.8752074770746 623.1711108123981 1435.7465163090096 623.1711108123981L1435.7465163090096 623.1711108123981L1415.0757181430681 623.1711108123981Q1408.6502716232317 623.1711108123981 1407.1191013887178 624.2101191858184Q1405.5605888285872 625.2491275592388 1404.959057665028 626.2061089558101Q1404.3301841758525 627.1630903523815 1403.9473916172242 628.393495005116Q1403.591941384212 629.6238996578508 1403.3185181280487 631.4011508229117L1403.3185181280487 631.4011508229117Q1403.017752546269 633.6432215234504 1402.662302313257 638.9202903674011Q1402.3068520802444 644.1700168857354 1402.1154558009302 646.4394299118903L1402.1154558009302 646.4394299118903L1395.0064511406858 646.1933489813434Q1396.7290176545143 629.5145303553854 1397.9320799816328 614.5309359176395L1397.9320799816328 614.5309359176395ZM1572.485486716249 750.7230598125524L1565.8139592658658 751.3519333017279Q1564.228104380119 742.5203621276551 1558.1307657676784 712.3891192984653L1558.1307657676784 712.3891192984653L1565.0483741486087 711.5688495299756L1567.5912104309268 723.7635267548563Q1568.930984386127 730.216315600309 1569.7239118290004 731.145954671264Q1570.5168392718738 732.075593742219 1571.637874622143 732.8411788594761Q1572.7862522980286 733.5794216511168 1573.7432336946003 733.9075295585128Q1574.7002150911712 734.2356374659087 1579.1296718410163 735.8214923516556L1579.1296718410163 735.8214923516556Q1589.1096206909747 739.3486523561614 1598.7067769823043 739.3486523561614Q1608.3039332736344 739.3486523561614 1614.2098756067603 736.5597351432963Q1620.1158179398867 733.7708179304312 1623.7796895724741 728.2476681559336Q1627.4162188794453 722.6971760558197 1627.4162188794453 717.3107379094038Q1627.4162188794453 711.8969574373715 1625.9944179473964 708.5338513865636Q1624.5452746897313 705.1707453357557 1622.3578886404252 702.5185397509721Q1620.1705025911192 699.893676491805 1616.6706849122297 697.1047592789399L1616.6706849122297 697.1047592789399Q1611.2842467658138 692.8666988084095 1602.2339369868105 687.9724225230874L1602.2339369868105 687.9724225230874L1594.1679509299947 683.4335964707776Q1582.1646699844282 676.7073843691617 1578.692194631155 673.3989629695865Q1575.2197192778817 670.0905415700112 1573.0323332285757 667.383651333995Q1570.8449471792696 664.7041034235953 1569.5598578753024 661.8605015594975L1569.5598578753024 661.8605015594975Q1566.6342290343555 655.4623973652775 1566.6342290343555 647.9979424720208Q1566.6342290343555 640.5334875787643 1569.9973350851637 633.8893024539974Q1573.3604411359715 627.2451173292304 1578.8289062592366 622.7336336025369L1578.8289062592366 622.7336336025369Q1590.6954755767215 612.9450810318926 1605.7884393169325 612.9450810318926L1605.7884393169325 612.9450810318926Q1613.307578861422 612.9450810318926 1619.2135211945479 614.913728476268Q1625.1194635276738 616.8823759206434 1625.939733296164 616.8823759206434Q1626.7600030646536 616.8823759206434 1627.498245856294 615.5972866166761Q1628.236488647935 614.3395396383252 1628.4278849272496 611.7693610303908L1628.4278849272496 611.7693610303908L1635.126754703249 611.3592261461458L1638.0523835441954 647.3964113084617L1630.998063535184 647.587807587776L1629.1934700445063 630.0887191933282Q1622.9594198039845 625.2491275592388 1611.4209583938955 623.0890838355491L1611.4209583938955 623.0890838355491Q1606.9641593184347 622.2141294158267 1601.6324058232512 622.2141294158267Q1596.327994653684 622.2141294158267 1591.1329527865828 624.8663350006102Q1585.937910919481 627.4911982597774 1582.7662011479874 632.3581322194831Q1579.5944913764938 637.1977238535726 1579.5944913764938 641.7638922314987Q1579.5944913764938 646.330060609425 1580.469445796216 649.1463201479065Q1581.344400215938 651.9625796863879 1583.0943090553833 654.4233889918571Q1584.844217894828 656.85685597171 1586.9222346416686 658.9895573697833Q1588.972909062893 661.0949164422403 1592.007907206305 663.2549601659299L1592.007907206305 663.2549601659299Q1596.65610256108 666.5633815655052 1604.2025844311856 670.8014420360356L1604.2025844311856 670.8014420360356L1615.0301453752504 676.7073843691617Q1626.623291436572 683.1601732146142 1630.6152709765552 686.7967025215854Q1634.6345928421551 690.460574154173 1636.8219788914612 693.0307527621075Q1639.0093649407672 695.600931370042 1640.4038235471994 698.2531369548254L1640.4038235471994 698.2531369548254Q1643.3841370393789 704.0497099854863 1643.3841370393789 710.2837602260083Q1643.3841370393789 716.5178104665304 1641.5248588974687 721.8769062873299Q1639.6929230811752 727.2360021081296 1635.9196821461223 731.911539788521Q1632.1464412110695 736.5870774689126 1626.8420300415023 740.0595528221859L1626.8420300415023 740.0595528221859Q1615.5223072363442 747.6060346922915 1598.679434656688 747.6060346922915L1598.679434656688 747.6060346922915Q1589.1643053422072 747.6060346922915 1583.2036783578483 745.8287835272304Q1577.2430513734898 744.0515323621693 1575.8485927670572 744.0515323621693L1575.8485927670572 744.0515323621693Q1572.2940904369348 744.0515323621693 1572.2940904369348 748.1802235302342L1572.2940904369348 748.1802235302342L1572.485486716249 750.7230598125524ZM1665.5861054398347 622.405525695141L1660.3090365958838 622.405525695141L1660.3090365958838 614.5309359176395L1707.5565752608927 614.5309359176395L1707.747971540207 622.405525695141L1700.2561743213341 622.405525695141Q1694.3775743138244 622.405525695141 1691.9987919852042 623.7452996503409Q1689.620009656584 625.0850736055407 1689.620009656584 629.651241983467L1689.620009656584 629.651241983467L1689.620009656584 702.5185397509721Q1689.620009656584 716.2170448847507 1698.232842225726 726.0329397810114L1698.232842225726 726.0329397810114Q1708.7049529367782 737.9541937497289 1730.7702097091524 737.9541937497289L1730.7702097091524 737.9541937497289Q1755.4603297406934 737.9541937497289 1763.8817660305217 727.4820830386765L1763.8817660305217 727.4820830386765Q1766.9167641739336 723.7635267548563 1768.447934408448 720.619159308979Q1769.9791046429618 717.4747918631017 1770.799374411452 712.0883537166857L1770.799374411452 712.0883537166857Q1771.8930674361045 704.7879527771271 1771.8930674361045 693.2494913670381L1771.8930674361045 693.2494913670381L1771.8930674361045 629.4598457041527Q1771.8930674361045 624.8663350006102 1769.7056813867985 623.417191742945L1769.7056813867985 623.417191742945Q1768.1198265010516 622.405525695141 1761.0928488176564 622.405525695141L1761.0928488176564 622.405525695141L1754.1752404367262 622.405525695141L1754.6127176465875 614.5309359176395L1791.6068842054747 614.5309359176395L1791.6068842054747 622.405525695141L1788.8179669926094 622.405525695141Q1785.509545593034 622.405525695141 1784.060402335369 622.9250298818512L1784.060402335369 622.9250298818512Q1781.189458145655 623.9366959296552 1781.189458145655 631.0457005898996L1781.189458145655 631.0457005898996L1781.189458145655 700.9326848652253Q1781.189458145655 733.6341063023496 1758.4953278841053 744.2429286414834L1758.4953278841053 744.2429286414834Q1747.4763706607268 749.3832858573526 1730.7702097091524 749.3832858573526L1730.7702097091524 749.3832858573526Q1688.2255510501514 749.3832858573526 1677.261278478005 723.0526262888319L1677.261278478005 723.0526262888319Q1673.65209149665 714.3577667428407 1673.65209149665 703.4755211475435L1673.65209149665 703.4755211475435L1673.65209149665 629.4598457041527Q1673.65209149665 624.5655694188306 1672.2576328902178 623.6632726734919L1672.2576328902178 623.6632726734919Q1670.4803817251568 622.405525695141 1665.5861054398347 622.405525695141L1665.5861054398347 622.405525695141ZM1802.4344451495394 622.405525695141L1802.2430488702253 614.5309359176395L1903.2182573713117 614.5309359176395Q1903.546365278708 632.8776364061933 1904.175238767883 645.4277638640864L1904.175238767883 645.4277638640864L1896.5193875953123 645.8105564227149Q1895.8084871292876 626.3975052351244 1893.5937587543654 624.0460652321204L1893.5937587543654 624.0460652321204Q1892.9375429395736 623.3078224404798 1891.3516880538268 623.1437684867818Q1889.7931754936963 622.9797145330838 1882.1646666467418 622.9797145330838L1882.1646666467418 622.9797145330838L1848.6703177667441 622.9797145330838Q1840.5496470586959 622.9797145330838 1839.4286117084266 623.8546689528063Q1838.3349186837736 624.7022810469123 1837.8427568226798 625.9600280252631L1837.8427568226798 625.9600280252631Q1837.2685679847368 627.4091712829284 1837.2685679847368 632.2487629170179L1837.2685679847368 632.2487629170179L1837.2685679847368 659.5910885333425Q1837.2685679847368 665.360319238387 1837.870099148296 666.0165350531787Q1838.4716303118553 666.6727508679705 1839.291900080345 667.0008587753665L1839.291900080345 667.0008587753665Q1840.3582507793817 667.4930206364603 1843.7486991558058 667.4930206364603L1843.7486991558058 667.4930206364603L1873.4698071007506 667.4930206364603Q1878.801560595934 667.4930206364603 1879.485118736342 666.536039239889Q1880.1960192023666 665.5517155177013 1880.5241271097625 664.4033378418156L1880.5241271097625 664.4033378418156Q1880.9616043196238 662.8721676073014 1880.9616043196238 658.0052336475957L1880.9616043196238 658.0052336475957L1880.9616043196238 650.3220401494085L1888.2620052591824 650.3220401494085L1888.2620052591824 697.3781825351031L1880.9616043196238 697.3781825351031L1880.9616043196238 684.3085508905Q1880.9616043196238 683.050803912149 1880.8522350171584 681.875083910647Q1880.7155233890767 680.6993639091451 1880.6608387378442 679.9884634431206Q1880.6334964122275 679.2502206514799 1880.3327308304483 678.5666625110717Q1880.059307574285 677.8557620450473 1879.8679112949708 677.5276541376514Q1879.7038573412729 677.1995462302556 1879.157010828946 676.8714383228597Q1878.6101643166198 676.5159880898474 1878.282056409224 676.4339611129984Q1877.9812908274444 676.3245918105332 1877.1063364077218 676.2425648336842Q1876.2587243136159 676.1331955312188 1875.7118778012891 676.1331955312188L1875.7118778012891 676.1331955312188L1844.3228879937487 676.1331955312188Q1839.4286117084266 676.1331955312188 1838.4716303118553 677.0901769277903L1838.4716303118553 677.0901769277903Q1837.2685679847368 678.4026085573738 1837.2685679847368 682.2305341436593L1837.2685679847368 682.2305341436593L1837.2685679847368 728.7124876914112Q1837.2685679847368 734.1536104890597 1838.389603335006 736.1496002590515Q1839.5379810108916 738.1455900290431 1843.1745103178628 738.1455900290431L1843.1745103178628 738.1455900290431L1856.3535112649315 738.1455900290431L1856.3535112649315 745.8287835272304L1805.7428665491143 745.8287835272304L1805.7428665491143 738.1455900290431L1811.4574126029265 738.1455900290431Q1818.2929940070076 738.1455900290431 1819.3320023804276 737.380004911786Q1820.343668428232 736.5870774689126 1820.7264609868603 735.6300960723413L1820.7264609868603 735.6300960723413Q1821.3006498248033 734.3996914196067 1821.3006498248033 730.6811351357865L1821.3006498248033 730.6811351357865L1821.3006498248033 630.8543043105853Q1821.3006498248033 624.6202540700633 1819.9882181952198 624.1280922089694Q1818.675786565636 623.6632726734919 1817.7734898202975 623.1711108123981Q1816.898535400575 622.6789489513043 1814.3010144670243 622.6242643000716Q1811.7034935334732 622.5422373232226 1809.4067381817022 622.48755267199Q1807.137325155547 622.405525695141 1802.4344451495394 622.405525695141L1802.4344451495394 622.405525695141ZM1919.3502294849432 622.405525695141L1919.158833205629 614.5309359176395L2020.161384032332 614.5309359176395Q2020.4894919397284 632.8776364061933 2021.1183654289039 645.4277638640864L2021.1183654289039 645.4277638640864L2013.4625142563327 645.8105564227149Q2012.7516137903085 626.3975052351244 2010.5368854153862 624.0460652321204L2010.5368854153862 624.0460652321204Q2009.8533272749778 623.3078224404798 2008.2948147148472 623.1437684867818Q2006.7363021547167 622.9797145330838 1999.1077933077622 622.9797145330838L1999.1077933077622 622.9797145330838L1965.5861021021483 622.9797145330838Q1957.4654313941 622.9797145330838 1956.371738369447 623.8546689528063Q1955.2507030191778 624.7022810469123 1954.7858834837002 625.9600280252631L1954.7858834837002 625.9600280252631Q1954.2116946457572 627.4091712829284 1954.2116946457572 632.2487629170179L1954.2116946457572 632.2487629170179L1954.2116946457572 659.5910885333425Q1954.2116946457572 665.360319238387 1954.8132258093165 666.0165350531787Q1955.4147569728757 666.6727508679705 1956.2350267413653 667.0008587753665L1956.2350267413653 667.0008587753665Q1957.2740351147859 667.4930206364603 1960.6918258168262 667.4930206364603L1960.6918258168262 667.4930206364603L1990.3855914361548 667.4930206364603Q1995.7446872569544 667.4930206364603 1996.4282453973624 666.536039239889Q1997.139145863387 665.5517155177013 1997.467253770783 664.4033378418156L1997.467253770783 664.4033378418156Q1997.9047309806442 662.8721676073014 1997.9047309806442 658.0052336475957L1997.9047309806442 658.0052336475957L1997.9047309806442 650.3220401494085L2005.2051319202028 650.3220401494085L2005.2051319202028 697.3781825351031L1997.9047309806442 697.3781825351031L1997.9047309806442 684.3085508905Q1997.9047309806442 683.050803912149 1997.7680193525625 681.875083910647Q1997.658650050097 680.6993639091451 1997.6039653988646 679.9884634431206Q1997.549280747632 679.2502206514799 1997.2758574914687 678.5666625110717Q1996.9750919096891 677.8557620450473 1996.8110379559912 677.5276541376514Q1996.6469840022933 677.1995462302556 1996.1001374899665 676.8714383228597Q1995.5532909776402 676.5159880898474 1995.2251830702444 676.4339611129984Q1994.9244174884648 676.3245918105332 1994.0494630687422 676.2425648336842Q1993.17450864902 676.1331955312188 1992.6550044623095 676.1331955312188L1992.6550044623095 676.1331955312188L1961.2660146547692 676.1331955312188Q1956.371738369447 676.1331955312188 1955.4147569728757 677.0901769277903L1955.4147569728757 677.0901769277903Q1954.2116946457572 678.4026085573738 1954.2116946457572 682.2305341436593L1954.2116946457572 682.2305341436593L1954.2116946457572 728.7124876914112Q1954.2116946457572 734.1536104890597 1955.3327299960265 736.1496002590515Q1956.4537653462958 738.1455900290431 1960.1176369788836 738.1455900290431L1960.1176369788836 738.1455900290431L1973.296637925952 738.1455900290431L1973.296637925952 745.8287835272304L1922.6859932101352 745.8287835272304L1922.6859932101352 738.1455900290431L1928.400539263947 738.1455900290431Q1935.2087783424117 738.1455900290431 1936.2477867158323 737.380004911786Q1937.2867950892523 736.5870774689126 1937.6695876478807 735.6300960723413L1937.6695876478807 735.6300960723413Q1938.2437764858237 734.3996914196067 1938.2437764858237 730.6811351357865L1938.2437764858237 730.6811351357865L1938.2437764858237 630.8543043105853Q1938.2437764858237 624.6202540700633 1936.9313448562402 624.1280922089694Q1935.6189132266568 623.6632726734919 1934.716616481318 623.1711108123981Q1933.814319735979 622.6789489513043 1931.2441411280447 622.6242643000716Q1928.6466201944936 622.5422373232226 1926.3498648427226 622.48755267199Q1924.0804518165673 622.405525695141 1919.3502294849432 622.405525695141L1919.3502294849432 622.405525695141ZM2077.8263487571608 736.8058160738432L2077.8263487571608 736.8058160738432Q2117.199297644668 736.3956811895983 2124.7184371891576 735.7941500260392Q2132.237576733647 735.1652765368638 2133.2765851070676 734.0989258378271Q2134.342935806104 733.0325751387904 2134.88978231843 731.47406257866Q2135.463971156373 729.9155500185294 2138.0341497643076 714.3577667428407L2138.0341497643076 714.3577667428407L2144.78770419154 715.314748139412L2139.8114009293686 745.8287835272304L2040.0392547554002 745.8287835272304L2040.0392547554002 738.1455900290431L2045.1522696456532 738.1455900290431Q2052.5073552364443 738.1455900290431 2053.573705935481 737.4073472374024Q2054.667398960134 736.6417621201452 2055.0775338443786 735.6300960723413L2055.0775338443786 735.6300960723413Q2055.569695705473 734.3996914196067 2055.569695705473 730.6811351357865L2055.569695705473 730.6811351357865L2055.569695705473 630.8543043105853Q2055.569695705473 625.0030466286918 2053.4643366330156 623.5539033710266L2053.4643366330156 623.5539033710266Q2051.632400816722 622.405525695141 2041.789163594845 622.405525695141L2041.789163594845 622.405525695141L2036.2933561459636 622.405525695141L2036.1019598666494 614.5309359176395L2137.459960926365 614.5309359176395Q2137.7607265081447 631.4831777997607 2138.471626974169 645.4277638640864L2138.471626974169 645.4277638640864L2130.7884334759815 645.8105564227149Q2130.0775330099573 626.3975052351244 2127.862804635035 624.0460652321204L2127.862804635035 624.0460652321204Q2127.179246494627 623.3078224404798 2125.6207339344965 623.1437684867818Q2124.062221374366 622.9797145330838 2116.406370201795 622.9797145330838L2116.406370201795 622.9797145330838L2082.9120213217975 622.9797145330838Q2074.791350613749 622.9797145330838 2073.697657589096 623.8546689528063Q2072.5766222388265 624.7022810469123 2072.111802703349 625.9600280252631L2072.111802703349 625.9600280252631Q2071.5376138654065 627.4091712829284 2071.5376138654065 632.2487629170179L2071.5376138654065 632.2487629170179L2071.5376138654065 659.5910885333425Q2071.5376138654065 665.360319238387 2072.1391450289652 666.0165350531787Q2072.7406761925245 666.6727508679705 2073.533603635398 667.0008587753665L2073.533603635398 667.0008587753665Q2074.5999543344346 667.4930206364603 2078.017745036475 667.4930206364603L2078.017745036475 667.4930206364603L2107.7661953070365 667.4930206364603Q2112.961237174138 667.4930206364603 2113.726822291395 666.45401226304Q2114.4924074086525 665.4150038896197 2114.7931729904317 664.1572569112687L2114.7931729904317 664.1572569112687Q2115.2033078746767 662.5440596999055 2115.2033078746767 657.6224410889671L2115.2033078746767 657.6224410889671L2115.2033078746767 650.1306438700941L2122.5310511398516 650.3220401494085L2122.5310511398516 697.3781825351031L2115.2033078746767 697.3781825351031L2115.2033078746767 687.1521527545978Q2115.2033078746767 678.922112744084 2114.4103804318033 677.91044669628Q2113.5901106633137 676.898780648476 2113.262002755918 676.6800420435453Q2112.961237174138 676.4613034386148 2111.97691345195 676.2972494849168Q2110.9925897297626 676.1331955312188 2110.3637162405876 676.1331955312188L2110.3637162405876 676.1331955312188L2078.591933874418 676.1331955312188Q2073.697657589096 676.1331955312188 2072.7406761925245 677.0901769277903L2072.7406761925245 677.0901769277903Q2071.5376138654065 678.4026085573738 2071.5376138654065 682.2305341436593L2071.5376138654065 682.2305341436593L2071.5376138654065 728.7124876914112Q2071.5376138654065 733.8255025816638 2072.7406761925245 735.3019881649453Q2073.943738519643 736.8058160738432 2077.8263487571608 736.8058160738432ZM2212.4599600919432 685.1835053102224L2207.7297377603195 685.4022439151529Q2195.67177216352 685.4022439151529 2189.8205144816266 684.1991815880347L2189.8205144816266 684.1991815880347L2189.8205144816266 732.4310439752313Q2189.8205144816266 736.5050504920637 2191.625107972304 737.2159509580881L2191.625107972304 737.2159509580881Q2193.949205649692 738.1455900290431 2203.40965031294 738.1455900290431L2203.40965031294 738.1455900290431L2213.4442838141313 738.1455900290431L2213.0614912555025 745.8287835272304L2160.6735953746243 745.8287835272304L2160.6735953746243 738.1455900290431L2165.2124214269343 738.1455900290431Q2171.501156318689 738.1455900290431 2172.3214260871787 737.6260858423329Q2173.1416958556683 737.1339239812391 2173.4698037630646 736.3136542127494L2173.4698037630646 736.3136542127494Q2173.9072809729255 735.438699793027 2173.9072809729255 732.4310439752313L2173.9072809729255 732.4310439752313L2173.9072809729255 629.4598457041527Q2173.9072809729255 623.9913805808878 2169.4231395718484 622.9797145330838L2169.4231395718484 622.9797145330838Q2166.9349879407628 622.405525695141 2162.068053981057 622.405525695141L2162.068053981057 622.405525695141L2156.5449042065597 622.405525695141L2156.736300485874 614.5309359176395L2202.0151917065073 614.5309359176395Q2217.682344284661 614.5309359176395 2226.4592308075016 616.5269256876312Q2235.2361173303416 618.5229154576228 2242.071698734423 624.0734075577368Q2248.9346224641204 629.6238996578508 2252.5438094454753 636.8422736205604Q2256.1803387524465 644.0879899088865 2256.1803387524465 649.693166660233Q2256.1803387524465 655.3256857371958 2255.3053843327243 658.9348727185508Q2254.4030875873855 662.5440596999055 2252.325070840545 666.1532466812604Q2250.2197117680876 669.7897759882316 2247.048001996594 672.8247741316436L2247.048001996594 672.8247741316436Q2240.048366638815 679.4963015820268 2228.017743367632 682.6133267022877L2228.017743367632 682.6133267022877L2265.8048373693928 732.8411788594761Q2268.4843852797926 736.2042849102841 2270.2616364448536 737.1886086324718Q2272.0388876099146 738.1455900290431 2274.30830063607 738.1455900290431L2274.30830063607 738.1455900290431L2282.757079251514 738.1455900290431L2283.1398718101427 745.8287835272304L2254.5944838666996 745.8287835272304L2212.4599600919432 685.1835053102224ZM2189.8205144816266 631.4284931485281L2189.8205144816266 677.7190504169657Q2192.1719544846305 679.687697861341 2202.4526689163686 679.687697861341L2202.4526689163686 679.687697861341Q2220.334549869445 679.687697861341 2228.509905228726 673.535674597668Q2236.6579182623905 667.383651333995 2236.6579182623905 654.4507313174735L2236.6579182623905 654.4507313174735Q2236.6579182623905 640.2327219969847 2226.1858075513383 631.4284931485281L2226.1858075513383 631.4284931485281Q2215.4402735841227 622.405525695141 2195.7264568147525 622.405525695141L2195.7264568147525 622.405525695141Q2192.2539814614797 622.405525695141 2191.297000064908 623.5539033710266L2191.297000064908 623.5539033710266Q2189.8205144816266 625.3858391873204 2189.8205144816266 631.4284931485281L2189.8205144816266 631.4284931485281ZM2338.6174504856654 622.405525695141L2330.3327258239187 622.405525695141L2330.524122103233 614.5309359176395L2379.9590468175484 614.5309359176395L2379.9590468175484 622.405525695141L2376.568598441124 622.405525695141Q2369.760359362659 622.405525695141 2368.63932401239 622.7609759281532Q2367.490946336504 623.1164261611654 2366.670676568014 623.6085880222593Q2365.8504067995245 624.0734075577368 2365.604325868978 624.6749387212959Q2365.3309026128145 625.276469884855 2365.0027947054186 626.2881359326591L2365.0027947054186 626.2881359326591Q2364.5653174955573 627.7919638415569 2364.5653174955573 631.4284931485281L2364.5653174955573 631.4284931485281L2364.5653174955573 729.0952802500397Q2364.5653174955573 735.438699793027 2365.6590105202104 736.3409965383656Q2366.725361219247 737.2159509580881 2368.065135174447 737.5987435167166L2368.065135174447 737.5987435167166Q2369.8970709907403 738.1455900290431 2375.1741398346912 738.1455900290431L2375.1741398346912 738.1455900290431L2382.884675658495 738.1455900290431L2383.076071937809 745.8287835272304L2332.711508152539 745.8287835272304L2332.520111873225 738.1455900290431L2337.605784437861 738.1455900290431Q2345.2889779360485 738.1455900290431 2346.4646979375507 737.2432932837045Q2347.6404179390524 736.368338863982 2348.0778951489137 735.2199611880964L2348.0778951489137 735.2199611880964Q2348.6520839868563 733.6614486279659 2348.6520839868563 729.4780728086682L2348.6520839868563 729.4780728086682L2348.6520839868563 629.4598457041527Q2348.6520839868563 624.3194884882837 2347.722444915901 623.6906149991082Q2346.7928058449465 623.0890838355491 2345.4803742153626 622.7883182537695L2345.4803742153626 622.7883182537695Q2343.9492039808483 622.405525695141 2338.6174504856654 622.405525695141L2338.6174504856654 622.405525695141ZM2393.876290556257 622.405525695141L2393.6848942769434 614.5309359176395L2424.171587339145 614.5309359176395L2504.9134748841516 718.67785419022L2504.9134748841516 629.4598457041527Q2504.9134748841516 624.8663350006102 2502.6987465092293 623.417191742945L2502.6987465092293 623.417191742945Q2501.1128916234825 622.405525695141 2494.0859139400873 622.405525695141L2494.0859139400873 622.405525695141L2487.168305559157 622.405525695141L2487.5510981177854 614.5309359176395L2529.521567938844 614.5309359176395L2529.521567938844 622.405525695141L2525.01008421215 622.405525695141Q2518.8854032740933 622.405525695141 2517.080809783416 623.5539033710266L2517.080809783416 623.5539033710266Q2514.127838616853 625.276469884855 2514.127838616853 631.0457005898996L2514.127838616853 631.0457005898996L2514.127838616853 744.4343249207978Q2514.127838616853 747.3052691105119 2513.881757686306 748.2622505070832Q2513.608334430143 749.1918895780383 2512.350587451792 749.1918895780383L2512.350587451792 749.1918895780383L2509.6163548901595 749.1918895780383Q2507.9758153531798 749.1918895780383 2507.647707445784 748.7544123681771Q2507.319599538388 748.3169351583159 2507.1008609334576 748.0981965533853Q2506.8821223285267 747.8521156228384 2506.3352758162005 747.059188179965Q2505.761086978258 746.2662607370916 2505.29626744278 745.6373872479161L2505.29626744278 745.6373872479161L2419.4413650075207 635.3931303628952L2420.453031055325 729.0952802500397Q2420.453031055325 735.4933844442596 2422.968525012027 736.8878430506921L2422.968525012027 736.8878430506921Q2425.3746496662634 738.1455900290431 2435.026490608826 738.1455900290431L2435.026490608826 738.1455900290431L2438.334912008401 738.1455900290431L2438.334912008401 745.8287835272304L2397.020658002135 745.8287835272304L2397.020658002135 738.1455900290431L2402.926600335261 738.1455900290431Q2409.40673150633 738.1455900290431 2410.309028251668 735.9308616541208L2410.309028251668 735.9308616541208Q2411.183982671391 733.8255025816638 2411.183982671391 729.4780728086682L2411.183982671391 729.4780728086682L2411.183982671391 624.7569656981449L2409.215335227015 622.405525695141L2393.876290556257 622.405525695141ZM2590.4676117376316 750.7230598125524L2583.768741961632 751.3519333017279Q2582.182887075885 742.5203621276551 2576.085548463445 712.3891192984653L2576.085548463445 712.3891192984653L2583.0031568443746 711.5688495299756L2585.545993126693 723.7635267548563Q2586.913109407509 730.216315600309 2587.7060368503826 731.145954671264Q2588.498964293256 732.075593742219 2589.6199996435253 732.8411788594761Q2590.7410349937945 733.5794216511168 2591.698016390366 733.9075295585128Q2592.682340112554 734.2356374659087 2597.084454536782 735.8214923516556L2597.084454536782 735.8214923516556Q2607.091745712357 739.3486523561614 2616.6889020036865 739.3486523561614Q2626.2587159694003 739.3486523561614 2632.192000628143 736.5597351432963Q2638.097942961269 733.7708179304312 2641.73447226824 728.2476681559336Q2645.3983439008275 722.6971760558197 2645.3983439008275 717.3107379094038Q2645.3983439008275 711.8969574373715 2643.9492006431624 708.5338513865636Q2642.5000573854973 705.1707453357557 2640.312671336191 702.5185397509721Q2638.125285286885 699.893676491805 2634.6254676079957 697.1047592789399L2634.6254676079957 697.1047592789399Q2629.23902946158 692.8666988084095 2620.2160620081927 687.9724225230874L2620.2160620081927 687.9724225230874L2612.150075951377 683.4335964707776Q2600.1194526801937 676.7073843691617 2596.646977326921 673.3989629695865Q2593.201844299264 670.0905415700112 2591.014458249958 667.383651333995Q2588.827072200652 664.7041034235953 2587.5419828966847 661.8605015594975L2587.5419828966847 661.8605015594975Q2584.5890117301215 655.4623973652775 2584.5890117301215 647.9979424720208Q2584.5890117301215 640.5334875787643 2587.9521177809293 633.8893024539974Q2591.3152238317375 627.2451173292304 2596.8110312806184 622.7336336025369L2596.8110312806184 622.7336336025369Q2608.6776005981037 612.9450810318926 2623.7705643383147 612.9450810318926L2623.7705643383147 612.9450810318926Q2631.262361557188 612.9450810318926 2637.168303890314 614.913728476268Q2643.1015885490565 616.8823759206434 2643.8945159919294 616.8823759206434Q2644.714785760419 616.8823759206434 2645.4803708776767 615.5972866166761Q2646.218613669317 614.3395396383252 2646.4100099486313 611.7693610303908L2646.4100099486313 611.7693610303908L2653.081537399015 611.3592261461458L2656.0071662399614 647.3964113084617L2648.9528462309495 647.587807587776L2647.175595065889 630.0887191933282Q2640.91420249975 625.2491275592388 2629.4030834152777 623.0890838355491L2629.4030834152777 623.0890838355491Q2624.9189420142 622.2141294158267 2619.6145308446335 622.2141294158267Q2614.3101196750663 622.2141294158267 2609.1150778079646 624.8663350006102Q2603.920035940863 627.4911982597774 2600.7483261693696 632.3581322194831Q2597.5766163978756 637.1977238535726 2597.5766163978756 641.7638922314987Q2597.5766163978756 646.330060609425 2598.451570817598 649.1463201479065Q2599.299182911704 651.9625796863879 2601.0490917511493 654.4233889918571Q2602.799000590594 656.85685597171 2604.8770173374346 658.9895573697833Q2606.955034084275 661.0949164422403 2609.962689902071 663.2549601659299L2609.962689902071 663.2549601659299Q2614.638227582462 666.5633815655052 2622.184709452568 670.8014420360356L2622.184709452568 670.8014420360356L2632.9849280710164 676.7073843691617Q2644.578074132338 683.1601732146142 2648.5973959979374 686.7967025215854Q2652.6167178635374 690.460574154173 2654.8041039128434 693.0307527621075Q2656.991489962149 695.600931370042 2658.3859485685816 698.2531369548254L2658.3859485685816 698.2531369548254Q2661.366262060761 704.0497099854863 2661.366262060761 710.2837602260083Q2661.366262060761 716.5178104665304 2659.5069839188513 721.8769062873299Q2657.6477057769407 727.2360021081296 2653.8744648418883 731.911539788521Q2650.1012239068355 736.5870774689126 2644.824155062885 740.0595528221859L2644.824155062885 740.0595528221859Q2633.4770899321097 747.6060346922915 2616.6615596780703 747.6060346922915L2616.6615596780703 747.6060346922915Q2607.1464303635894 747.6060346922915 2601.1858033792305 745.8287835272304Q2595.225176394872 744.0515323621693 2593.830717788439 744.0515323621693L2593.830717788439 744.0515323621693Q2590.276215458317 744.0515323621693 2590.276215458317 748.1802235302342L2590.276215458317 748.1802235302342L2590.4676117376316 750.7230598125524ZM2686.5485439533963 622.405525695141L2678.2638192916493 622.405525695141L2678.455215570964 614.5309359176395L2727.8627979596627 614.5309359176395L2727.8627979596627 622.405525695141L2724.499691908855 622.405525695141Q2717.69145283039 622.405525695141 2716.543075154504 622.7609759281532Q2715.422039804235 623.1164261611654 2714.601770035745 623.6085880222593Q2713.7815002672555 624.0734075577368 2713.535419336709 624.6749387212959Q2713.261996080545 625.276469884855 2712.933888173149 626.2881359326591L2712.933888173149 626.2881359326591Q2712.4964109632883 627.7919638415569 2712.4964109632883 631.4284931485281L2712.4964109632883 631.4284931485281L2712.4964109632883 729.0952802500397Q2712.4964109632883 735.438699793027 2713.562761662325 736.3409965383656Q2714.6564546869777 737.2159509580881 2715.996228642178 737.5987435167166L2715.996228642178 737.5987435167166Q2717.8281644584713 738.1455900290431 2723.105233302422 738.1455900290431L2723.105233302422 738.1455900290431L2730.8157691262254 738.1455900290431L2731.00716540554 745.8287835272304L2680.6152592946537 745.8287835272304L2680.4238630153395 738.1455900290431L2685.536877905592 738.1455900290431Q2693.220071403779 738.1455900290431 2694.3957914052817 737.2432932837045Q2695.5715114067834 736.368338863982 2696.0089886166443 735.2199611880964L2696.0089886166443 735.2199611880964Q2696.5831774545873 733.6614486279659 2696.5831774545873 729.4780728086682L2696.5831774545873 729.4780728086682L2696.5831774545873 629.4598457041527Q2696.5831774545873 624.3194884882837 2695.653538383632 623.6906149991082Q2694.696556987061 623.0890838355491 2693.4114676830936 622.7883182537695L2693.4114676830936 622.7883182537695Q2691.8802974485793 622.405525695141 2686.5485439533963 622.405525695141L2686.5485439533963 622.405525695141ZM2748.478911474371 622.405525695141L2741.615987744674 622.405525695141L2741.807384023988 614.5309359176395L2792.171947809258 614.5309359176395L2792.171947809258 622.405525695141L2783.3403766351853 622.405525695141Q2777.844569186304 622.405525695141 2776.9969570921976 623.1437684867818Q2776.1220026724754 623.8820112784225 2775.657183136998 624.7022810469123L2775.657183136998 624.7022810469123Q2774.8642556941245 626.0147126764958 2774.8642556941245 629.651241983467L2774.8642556941245 629.651241983467L2774.8642556941245 729.0952802500397Q2774.8642556941245 735.3019881649453 2777.325064999594 736.3136542127494L2777.325064999594 736.3136542127494Q2778.6374966291773 736.8058160738432 2781.3717291908097 736.8058160738432L2781.3717291908097 736.8058160738432Q2831.1074194869043 736.5050504920637 2833.759625071688 733.8528449072802L2833.759625071688 733.8528449072802Q2835.2361106549697 732.3763593239986 2835.97435344661 728.9038839707254Q2836.6852539126344 725.4587509430685 2837.150073448112 723.1346532656809Q2837.587550657973 720.8378979139096 2837.9976855422183 718.4591155852894Q2838.407820426463 716.0803332566692 2839.036693915639 712.5805155777797L2839.036693915639 712.5805155777797L2845.9269599709523 712.9633081364082L2839.419486474267 745.8287835272304L2744.3502203063063 745.8287835272304L2744.158824026992 738.1455900290431L2749.681973801489 738.1455900290431Q2756.4081859031057 738.1455900290431 2757.3104826484446 737.2979779349371Q2758.1854370681667 736.450365840831 2758.404175673097 736.0675732822025Q2758.595571952412 735.6847807235739 2758.732283580493 734.7277993270026L2758.732283580493 734.7277993270026Q2758.923679859807 733.4153676974189 2758.923679859807 730.6811351357865L2758.923679859807 730.6811351357865L2758.923679859807 628.88565686621Q2758.923679859807 624.6749387212959 2756.8183207873503 623.5265610454103Q2754.6856193892772 622.405525695141 2748.478911474371 622.405525695141L2748.478911474371 622.405525695141ZM2898.31485585183 736.8058160738432L2898.31485585183 736.8058160738432Q2937.6604624137212 736.3956811895983 2945.1796019582107 735.7941500260392Q2952.6987415026997 735.1652765368638 2953.7650922017365 734.0989258378271Q2954.8314429007733 733.0325751387904 2955.3782894130995 731.47406257866Q2955.9251359254263 729.9155500185294 2958.522656858977 714.3577667428407L2958.522656858977 714.3577667428407L2965.248868960593 715.314748139412L2960.2999080240384 745.8287835272304L2860.52776185007 745.8287835272304L2860.52776185007 738.1455900290431L2865.6134344147063 738.1455900290431Q2872.9685200054973 738.1455900290431 2874.0622130301504 737.4073472374024Q2875.128563729187 736.6417621201452 2875.5660409390484 735.6300960723413L2875.5660409390484 735.6300960723413Q2876.0582028001418 734.3996914196067 2876.0582028001418 730.6811351357865L2876.0582028001418 730.6811351357865L2876.0582028001418 630.8543043105853Q2876.0582028001418 625.0030466286918 2873.9255014020687 623.5539033710266L2873.9255014020687 623.5539033710266Q2872.1209079113914 622.405525695141 2862.250328363898 622.405525695141L2862.250328363898 622.405525695141L2856.7818632406334 622.405525695141L2856.5904669613187 614.5309359176395L2957.9484680210344 614.5309359176395Q2958.249233602814 631.4831777997607 2958.960134068838 645.4277638640864L2958.960134068838 645.4277638640864L2951.276940570651 645.8105564227149Q2950.53869777901 626.3975052351244 2948.323969404088 624.0460652321204L2948.323969404088 624.0460652321204Q2947.6677535892964 623.3078224404798 2946.109241029166 623.1437684867818Q2944.5507284690357 622.9797145330838 2936.894877296464 622.9797145330838L2936.894877296464 622.9797145330838L2903.4005284164664 622.9797145330838Q2895.279857708418 622.9797145330838 2894.158822358149 623.8546689528063Q2893.0651293334963 624.7022810469123 2892.5729674724025 625.9600280252631L2892.5729674724025 625.9600280252631Q2891.9987786344595 627.4091712829284 2891.9987786344595 632.2487629170179L2891.9987786344595 632.2487629170179L2891.9987786344595 659.5910885333425Q2891.9987786344595 665.360319238387 2892.6003097980188 666.0165350531787Q2893.2018409615775 666.6727508679705 2894.022110730067 667.0008587753665L2894.022110730067 667.0008587753665Q2895.088461429104 667.4930206364603 2898.5062521311447 667.4930206364603L2898.5062521311447 667.4930206364603L2928.254702401706 667.4930206364603Q2933.4224019431913 667.4930206364603 2934.2153293860647 666.45401226304Q2934.980914503322 665.4150038896197 2935.2543377594848 664.1572569112687L2935.2543377594848 664.1572569112687Q2935.691814969346 662.5440596999055 2935.691814969346 657.6224410889671L2935.691814969346 657.6224410889671L2935.691814969346 650.1306438700941L2942.9922159089047 650.3220401494085L2942.9922159089047 697.3781825351031L2935.691814969346 697.3781825351031L2935.691814969346 687.1521527545978Q2935.691814969346 678.922112744084 2934.8715452008564 677.91044669628Q2934.0512754323668 676.898780648476 2933.750509850587 676.6800420435453Q2933.4224019431913 676.4613034386148 2932.4380782210033 676.2972494849168Q2931.4537544988157 676.1331955312188 2930.852223335257 676.1331955312188L2930.852223335257 676.1331955312188L2899.0804409690872 676.1331955312188Q2894.158822358149 676.1331955312188 2893.2018409615775 677.0901769277903L2893.2018409615775 677.0901769277903Q2891.9987786344595 678.4026085573738 2891.9987786344595 682.2305341436593L2891.9987786344595 682.2305341436593L2891.9987786344595 728.7124876914112Q2891.9987786344595 733.8255025816638 2893.2018409615775 735.3019881649453Q2894.404903288696 736.8058160738432 2898.31485585183 736.8058160738432ZM2978.045077349033 622.405525695141L2977.8536810697183 614.5309359176395L3008.313031806304 614.5309359176395L3089.0549193513107 718.67785419022L3089.0549193513107 629.4598457041527Q3089.0549193513107 624.8663350006102 3086.8401909763884 623.417191742945L3086.8401909763884 623.417191742945Q3085.2543360906416 622.405525695141 3078.2547007328626 622.405525695141L3078.2547007328626 622.405525695141L3071.337092351933 622.405525695141L3071.719884910561 614.5309359176395L3113.663012406003 614.5309359176395L3113.663012406003 622.405525695141L3109.151528679309 622.405525695141Q3103.054190066869 622.405525695141 3101.222254250575 623.5539033710266L3101.222254250575 623.5539033710266Q3098.296625409628 625.276469884855 3098.296625409628 631.0457005898996L3098.296625409628 631.0457005898996L3098.296625409628 744.4343249207978Q3098.296625409628 747.3052691105119 3098.0232021534653 748.2622505070832Q3097.749778897302 749.1918895780383 3096.519374244567 749.1918895780383L3096.519374244567 749.1918895780383L3093.785141682935 749.1918895780383Q3092.144602145955 749.1918895780383 3091.789151912943 748.7544123681771Q3091.461044005547 748.3169351583159 3091.2423054006167 748.0981965533853Q3091.0235667956863 747.8521156228384 3090.47672028336 747.059188179965Q3089.9298737710333 746.2662607370916 3089.4377119099395 745.6373872479161L3089.4377119099395 745.6373872479161L3003.6101518002965 635.3931303628952L3004.6218178481004 729.0952802500397Q3004.6218178481004 735.4933844442596 3007.109969479186 736.8878430506921L3007.109969479186 736.8878430506921Q3009.5160941334225 738.1455900290431 3019.167935075985 738.1455900290431L3019.167935075985 738.1455900290431L3022.5036988011766 738.1455900290431L3022.5036988011766 745.8287835272304L2981.1621024692936 745.8287835272304L2981.1621024692936 738.1455900290431L2987.06804480242 738.1455900290431Q2993.575518299105 738.1455900290431 2994.477815044444 735.9308616541208L2994.477815044444 735.9308616541208Q2995.352769464166 733.8255025816638 2995.352769464166 729.4780728086682L2995.352769464166 729.4780728086682L2995.352769464166 624.7569656981449L2993.3567796941747 622.405525695141L2978.045077349033 622.405525695141ZM3243.347662804231 614.148143359011L3243.347662804231 614.148143359011L3243.402347455463 612.9450810318926L3250.8394600231036 612.9450810318926Q3251.413648861046 632.1120512889362 3253.1909000261076 650.5681210799554L3253.1909000261076 650.5681210799554L3246.1365800170956 650.7595173592696Q3245.2069409461405 643.131008512315 3245.152256294908 641.7365499058825Q3245.0702293180593 640.34209129945 3244.7968060618955 638.7288940880868Q3244.4960404801163 637.1156968767236 3244.414013503267 636.5688503643971Q3244.3593288520347 636.049346177687 3243.812482339708 635.1197071067319Q3243.238293501766 634.1900680357769 3242.9375279199858 633.9713294308464Q3242.60942001259 633.7525908259157 3241.6250962904023 633.0690326855075Q3240.6134302425985 632.4128168707158 3239.8478451253413 632.1120512889362L3239.8478451253413 632.1120512889362Q3238.2073055883616 631.592547102226 3233.83253348975 629.3231340760711Q3229.4577613911374 627.0537210499161 3220.1887130072037 625.2217852336224Q3210.947006948886 623.3625070917124 3201.3498506575556 623.3625070917124Q3191.72535204061 623.3625070917124 3183.0304924946186 626.2061089558101Q3174.3356329486273 629.0497108199079 3167.6914478238605 634.1627257101605Q3161.0472626990936 639.2757406004133 3156.207671065004 646.1386643301108L3156.207671065004 646.1386643301108Q3146.3097491918948 660.0832503944363 3146.3097491918948 678.2932392549086L3146.3097491918948 678.2932392549086Q3146.3097491918948 693.8236802049809 3153.9929426900817 708.233085804784L3153.9929426900817 708.233085804784Q3161.4847399089545 722.3143834971912 3174.991848763419 731.227981648113L3174.991848763419 731.227981648113Q3188.881750176512 740.3056337527328 3205.943361361098 740.3056337527328L3205.943361361098 740.3056337527328Q3222.3760990565097 740.3056337527328 3238.261990239594 729.7241537392151L3238.261990239594 729.7241537392151Q3246.984192111202 723.900238382938 3247.093561413667 720.01762814542L3247.093561413667 720.01762814542L3247.722434902843 703.4755211475435L3254.58535863254 703.4755211475435L3253.4369809566547 732.239647695917Q3235.9925772134393 744.4343249207978 3213.052366021343 748.0435119021527L3213.052366021343 748.0435119021527Q3206.9550274089024 749.000493298724 3201.0490850757765 749.000493298724L3201.0490850757765 749.000493298724Q3167.062574334685 749.000493298724 3148.2237119850374 731.4193779274273L3148.2237119850374 731.4193779274273Q3129.576245914704 714.0023165098285 3129.576245914704 684.0077853087204L3129.576245914704 684.0077853087204Q3129.576245914704 655.9545592263713 3147.704207798327 636.7329043180952L3147.704207798327 636.7329043180952Q3157.793525950751 626.0147126764958 3172.9685166678114 619.7533201103575L3172.9685166678114 619.7533201103575Q3186.584994824741 614.148143359011 3198.6703027471563 614.148143359011Q3210.7556106695715 614.148143359011 3218.65754277269 615.1051247555823Q3226.5594748758076 616.0621061521537 3230.2780311596275 617.1831415024229Q3233.969245117831 618.3315191783087 3236.703477679464 619.28850057488Q3239.4377102410963 620.2454819714513 3240.422033963284 620.2454819714513Q3241.379015359855 620.2454819714513 3241.953204197798 620.0814280177534Q3242.5273930357407 619.9173740640555 3242.8555009431366 619.1244466211821L3242.8555009431366 619.1244466211821Q3243.347662804231 618.030753596529 3243.347662804231 614.148143359011ZM3311.0746033558667 736.8058160738432L3311.0746033558667 736.8058160738432Q3350.420209917758 736.3956811895983 3357.9393494622473 735.7941500260392Q3365.4584890067363 735.1652765368638 3366.524839705773 734.0989258378271Q3367.59119040481 733.0325751387904 3368.138036917136 731.47406257866Q3368.684883429463 729.9155500185294 3371.282404363014 714.3577667428407L3371.282404363014 714.3577667428407L3378.0086164646295 715.314748139412L3373.059655528075 745.8287835272304L3273.2875093541056 745.8287835272304L3273.2875093541056 738.1455900290431L3278.3731819187424 738.1455900290431Q3285.728267509534 738.1455900290431 3286.821960534187 737.4073472374024Q3287.8883112332237 736.6417621201452 3288.3257884430845 735.6300960723413L3288.3257884430845 735.6300960723413Q3288.8179503041783 734.3996914196067 3288.8179503041783 730.6811351357865L3288.8179503041783 730.6811351357865L3288.8179503041783 630.8543043105853Q3288.8179503041783 625.0030466286918 3286.6852489061057 623.5539033710266L3286.6852489061057 623.5539033710266Q3284.880655415428 622.405525695141 3275.010075867934 622.405525695141L3275.010075867934 622.405525695141L3269.5416107446695 622.405525695141L3269.3502144653553 614.5309359176395L3370.7082155250705 614.5309359176395Q3371.00898110685 631.4831777997607 3371.719881572875 645.4277638640864L3371.719881572875 645.4277638640864L3364.0366880746874 645.8105564227149Q3363.298445283047 626.3975052351244 3361.083716908124 624.0460652321204L3361.083716908124 624.0460652321204Q3360.4275010933325 623.3078224404798 3358.868988533202 623.1437684867818Q3357.310475973072 622.9797145330838 3349.6546248005006 622.9797145330838L3349.6546248005006 622.9797145330838L3316.1602759205034 622.9797145330838Q3308.0396052124547 622.9797145330838 3306.9185698621854 623.8546689528063Q3305.8248768375324 624.7022810469123 3305.3327149764386 625.9600280252631L3305.3327149764386 625.9600280252631Q3304.7585261384957 627.4091712829284 3304.7585261384957 632.2487629170179L3304.7585261384957 632.2487629170179L3304.7585261384957 659.5910885333425Q3304.7585261384957 665.360319238387 3305.360057302055 666.0165350531787Q3305.9615884656137 666.6727508679705 3306.7818582341033 667.0008587753665L3306.7818582341033 667.0008587753665Q3307.8482089331405 667.4930206364603 3311.265999635181 667.4930206364603L3311.265999635181 667.4930206364603L3341.0144499057424 667.4930206364603Q3346.209491772844 667.4930206364603 3346.975076890101 666.45401226304Q3347.740662007358 665.4150038896197 3348.014085263521 664.1572569112687L3348.014085263521 664.1572569112687Q3348.451562473382 662.5440596999055 3348.451562473382 657.6224410889671L3348.451562473382 657.6224410889671L3348.451562473382 650.1306438700941L3355.751963412941 650.3220401494085L3355.751963412941 697.3781825351031L3348.451562473382 697.3781825351031L3348.451562473382 687.1521527545978Q3348.451562473382 678.922112744084 3347.6312927048925 677.91044669628Q3346.811022936403 676.898780648476 3346.5102573546237 676.6800420435453Q3346.209491772844 676.4613034386148 3345.2251680506565 676.2972494849168Q3344.2408443284685 676.1331955312188 3343.611970839293 676.1331955312188L3343.611970839293 676.1331955312188L3311.8401884731234 676.1331955312188Q3306.9185698621854 676.1331955312188 3305.9615884656137 677.0901769277903L3305.9615884656137 677.0901769277903Q3304.7585261384957 678.4026085573738 3304.7585261384957 682.2305341436593L3304.7585261384957 682.2305341436593L3304.7585261384957 728.7124876914112Q3304.7585261384957 733.8255025816638 3305.9615884656137 735.3019881649453Q3307.1646507927326 736.8058160738432 3311.0746033558667 736.8058160738432ZM3402.589367193705 747.7974309716056Q3400.511350446865 747.7974309716056 3397.0115327679746 744.0515323621693Q3393.539057414702 740.3056337527328 3393.539057414702 737.9815360753452Q3393.539057414702 735.6847807235739 3397.394325326604 732.2943323471496Q3401.222250912889 728.9038839707254 3403.4643216134273 728.9038839707254Q3405.7063923139663 728.9038839707254 3408.9601290623086 732.8138365338598Q3412.241208136268 736.696446771378 3412.241208136268 738.9385174719165Q3412.241208136268 741.1532458468388 3408.467967201215 744.4890095720305Q3404.694726266162 747.7974309716056 3402.589367193705 747.7974309716056Z " fill="red" transform="matrix(0.25642971209003484,0,0,0.25642971209003484,0,126.5632716462031)"/></g></svg>